<svg width="456" height="469" fill="none" xmlns="http://www.w3.org/2000/svg"><g clip-path="url(#clip0_1457_20394)"><path opacity=".5" d="M410.147 99.314c-6.926-9.501-66.22-88.081-162.332-84.253-4.803.19-98.539 5.152-133.112 66.75-25.575 45.565 1.502 85.991-29.698 117.035-27.194 27.051-60.597 9.146-77.303 31.02-25.449 33.32 15.071 123.31 77.345 173.498 64.294 51.82 187.298 89.838 282.908 20.7 107.327-77.624 106.244-236.888 42.192-324.75z" fill="url(#paint0_linear_1457_20394)" fill-opacity=".5"/><path d="M110.941 298.066a206.255 206.255 0 01-26.702-1.76l.103-.787c57.388 7.489 94.255-11.304 98.289-13.482-20.17-31.432-5.913-77.678-5.766-78.14l.757.239c-.146.462-14.398 46.709 5.907 77.827l.228.35-.362.21c-.326.182-27.41 15.543-72.454 15.543z" fill="#fff"/><path d="M146.387 257.902a2.247 2.247 0 01-2.231-2.032c-1.966-20.627-8.692-40.228-18.939-55.187-9.077-13.254-19.882-21.163-28.911-21.163h-.028c-32.886.064-39.766 75.566-39.832 76.337a2.246 2.246 0 01-4.473-.383c.281-3.276 7.322-80.364 44.295-80.433h.04c10.669 0 22.553 8.422 32.617 23.116 10.667 15.577 17.665 35.926 19.702 57.297a2.245 2.245 0 01-2.022 2.458 2.286 2.286 0 00-.218-.01z" fill="url(#paint1_linear_1457_20394)"/><path d="M9.384 413.293l43.291 21.917 26.238-80.49-43.227-107.915-12.255 3.004L4.835 404.778a8.406 8.406 0 004.549 8.515z" fill="url(#paint2_linear_1457_20394)"/><path style="mix-blend-mode:multiply" opacity=".52" d="M78.914 354.72L35.687 246.805l-7.228 1.779a234.97 234.97 0 00.12 34.893c2.896 36.738 12.518 46.962 7.863 72.592-3.876 21.311-12.34 24.204-11.602 38.543.806 15.615 11.698 28.692 24.648 38.974l3.194 1.617 26.232-80.483z" fill="url(#paint3_linear_1457_20394)"/><path d="M35.687 246.811H197.1l53.42 172.458L52.676 435.21l-16.99-188.399z" fill="url(#paint4_linear_1457_20394)"/><path d="M85.69 261.592a2.246 2.246 0 01-2.19-1.733c-.458-1.956-11.063-48.161 3.89-70.845 4.285-6.498 10.274-10.467 17.797-11.794 38.66-6.812 62.454 76.211 63.448 79.75.089.286.119.587.089.886a2.25 2.25 0 01-2.515 2.005 2.244 2.244 0 01-1.897-1.678c-.232-.819-23.66-82.665-58.346-76.542-6.347 1.121-11.198 4.341-14.827 9.845-13.9 21.082-3.374 66.888-3.266 67.348a2.246 2.246 0 01-2.184 2.758z" fill="url(#paint5_linear_1457_20394)"/><path style="mix-blend-mode:multiply" opacity=".3" d="M197.1 246.805h-80.076c-3.95 4.017-6.753 8.646-7.021 13.841-1.258 24.408 54.835 32.415 60.246 65.853 3.902 24.125-20.11 51.961-41.535 64.361-22.574 13.066-37.87 6.45-53.137 20.956-6.707 6.374-10.792 14.343-13.221 22.606l188.164-15.161-53.42-172.456z" fill="url(#paint6_linear_1457_20394)"/><path d="M91.903 262.952a6.274 6.274 0 10-12.386-2.011 6.274 6.274 0 0012.386 2.011z" fill="url(#paint7_linear_1457_20394)"/><path d="M174.649 261.578a6.292 6.292 0 10-12.422-2.008 6.292 6.292 0 0012.422 2.008z" fill="url(#paint8_linear_1457_20394)"/><path d="M315.61 67.92a143646.362 143646.362 0 0042.061 351.785c.63 5.203-2.964 9.802-7.993 10.232a42077.11 42077.11 0 00-169.047 16.381c-10.052.492-15.572-5.129-16.218-10.751a164499.16 164499.16 0 01-43.294-379.69c-.655-5.743 4.218-10.679 14.27-10.188a88325.059 88325.059 0 00169.876 11.959c5.065.334 9.715 4.952 10.345 10.271z" fill="#26264F"/><path d="M323.435 67.674a142542.96 142542.96 0 0042.327 353.292c.634 5.219-2.981 9.847-8.043 10.278a53237.33 53237.33 0 00-175.534 15.161c-5.339.475-10.247-3.755-10.897-9.405a163183.147 163183.147 0 01-43.575-381.457c-.655-5.768 3.219-10.194 8.595-9.829 58.905 3.932 117.809 7.814 176.714 11.647 5.101.338 9.781 4.972 10.413 10.313z" fill="url(#paint9_linear_1457_20394)"/><path d="M320.037 87.143a140842.432 140842.432 0 0039.204 327.58c.591 4.887-2.785 9.202-7.516 9.587a52450.005 52450.005 0 00-165.081 13.76c-4.972.426-9.542-3.533-10.156-8.782A155192.277 155192.277 0 01136.206 77.23c-.608-5.361 2.994-9.509 7.997-9.213 55.369 3.224 110.739 6.414 166.108 9.57 4.764.27 9.136 4.584 9.726 9.556z" fill="url(#paint10_linear_1457_20394)"/><path d="M320.037 87.143a140842.432 140842.432 0 0039.204 327.58c.591 4.887-2.785 9.202-7.516 9.587a52450.005 52450.005 0 00-165.081 13.76c-4.972.426-9.542-3.533-10.156-8.782A155192.277 155192.277 0 01136.206 77.23c-.608-5.361 2.994-9.509 7.997-9.213 55.369 3.224 110.739 6.414 166.108 9.57 4.764.27 9.136 4.584 9.726 9.556z" fill="url(#paint11_linear_1457_20394)"/><path d="M310.317 77.584a135723.62 135723.62 0 01-164.142-9.457 125.532 125.532 0 009.612 31.097c18.15 39.375 44.812 41.542 55.242 75.846 10.746 35.35-13.488 46.412-1.65 78.328 12.848 34.633 44.36 29.62 61.013 67.608 14.355 32.744-4.125 47.711 10.719 67.61 16.27 21.809 46.367 14.416 77.609 21.802a143191.776 143191.776 0 01-38.684-323.274c-.589-4.973-4.962-9.288-9.719-9.56z" fill="url(#paint12_linear_1457_20394)" opacity=".35"/><path d="M230.402 63.049c.223 1.918-1.067 3.386-2.878 3.276-1.812-.11-3.467-1.757-3.689-3.684-.223-1.926 1.068-3.397 2.881-3.276 1.813.121 3.463 1.764 3.686 3.684z" fill="#DE8BDF"/><path d="M250.167 169.609c6.995 0 12.665-6.689 12.665-14.94s-5.67-14.94-12.665-14.94c-6.994 0-12.664 6.689-12.664 14.94s5.67 14.94 12.664 14.94z" fill="#DD51D4"/><path d="M250.167 169.609c6.995 0 12.665-6.689 12.665-14.94s-5.67-14.94-12.665-14.94c-6.994 0-12.664 6.689-12.664 14.94s5.67 14.94 12.664 14.94z" fill="#000" fill-opacity=".2"/><path d="M300.578 169.609c6.993 0 12.663-6.689 12.663-14.94s-5.67-14.94-12.663-14.94c-6.994 0-12.663 6.689-12.663 14.94s5.669 14.94 12.663 14.94z" fill="#DD51D4"/><path d="M300.578 169.609c6.993 0 12.663-6.689 12.663-14.94s-5.67-14.94-12.663-14.94c-6.994 0-12.663 6.689-12.663 14.94s5.669 14.94 12.663 14.94z" fill="#000" fill-opacity=".2"/><path d="M275.232 169.609c7.094 0 12.845-6.689 12.845-14.94s-5.751-14.94-12.845-14.94-12.844 6.689-12.844 14.94 5.75 14.94 12.844 14.94z" fill="#D8DEE8"/><path d="M350.988 169.609c6.994 0 12.664-6.689 12.664-14.94s-5.67-14.94-12.664-14.94c-6.995 0-12.665 6.689-12.665 14.94s5.67 14.94 12.665 14.94z" fill="#DD51D4"/><path d="M350.988 169.609c6.994 0 12.664-6.689 12.664-14.94s-5.67-14.94-12.664-14.94c-6.995 0-12.665 6.689-12.665 14.94s5.67 14.94 12.665 14.94z" fill="#000" fill-opacity=".2"/><path d="M325.644 169.609c7.093 0 12.844-6.689 12.844-14.94s-5.751-14.94-12.844-14.94c-7.094 0-12.845 6.689-12.845 14.94s5.751 14.94 12.845 14.94zm50.409 0c7.094 0 12.844-6.689 12.844-14.94s-5.75-14.94-12.844-14.94c-7.094 0-12.845 6.689-12.845 14.94s5.751 14.94 12.845 14.94zm-151.23 0c7.094 0 12.845-6.689 12.845-14.94s-5.751-14.94-12.845-14.94-12.844 6.689-12.844 14.94 5.75 14.94 12.844 14.94z" fill="#D8DEE8"/><path d="M133.67 66.535l78.583 90.157h202.826l-98.282-78.74L133.67 66.536z" fill="url(#paint13_linear_1457_20394)"/><path d="M133.67 66.535l78.583 90.157h202.826l-98.282-78.74L133.67 66.536z" fill="#DD51D4"/><path d="M133.67 66.535l78.583 90.157h25.415l-82.859-88.84-21.139-1.317zm43.836 2.732l85.206 87.425h25.103l-87.444-85.998-22.865-1.427zm45.901 2.863l89.572 84.562h25.226l-91.59-83.115-23.208-1.448zm70.16 4.375l-23.566-1.47 93.489 81.657h25.349l-95.272-80.187z" fill="#F4F7FA"/><path d="M388.863 156.692c.839 7.293 6.124 12.919 12.534 12.919 6.41 0 11.696-5.626 12.535-12.919h-25.069z" fill="#DD51D4"/><path d="M388.863 156.692c.839 7.293 6.124 12.919 12.534 12.919 6.41 0 11.696-5.626 12.535-12.919h-25.069z" fill="#000" fill-opacity=".2"/><path opacity=".63" d="M292.463 213.013c-10.976-25.28-38.798-37.558-62.156-27.422-23.359 10.135-33.402 38.845-22.433 64.127 10.969 25.281 38.798 37.556 62.156 27.42 23.359-10.135 33.402-38.851 22.433-64.125zm-34.444 36.026l.936 7.12-6.843.899-.865-6.633c-4.705.406-9.408-.254-12.263-1.441l1.021-8.443c3.143 1.218 7.455 2.146 11.994 1.548 3.979-.523 6.5-2.417 6.132-5.21-.348-2.653-2.803-4.034-8.191-5.101-7.801-1.531-13.356-4.352-14.252-11.124-.806-6.144 2.89-11.53 10.166-13.977l-.871-6.633 6.842-.898.806 6.143c4.707-.406 7.977.164 10.427.973l-.983 8.155c-1.916-.529-5.338-1.713-10.366-1.052-4.538.595-5.746 2.744-5.489 4.699.303 2.303 2.939 3.44 9.173 4.903 8.694 1.841 12.549 5.242 13.374 11.521.798 6.215-2.903 12.097-10.748 14.551zm59.506 101.243l-106.917 3.238a7.605 7.605 0 01-5.099-1.758 7.606 7.606 0 01-2.648-4.699l-4.334-28.504a7.598 7.598 0 017.342-8.744l107.032-2.479a7.607 7.607 0 017.699 6.459l4.218 27.744a7.59 7.59 0 01-1.679 6.013 7.61 7.61 0 01-5.614 2.73zm3.592 23.432l-106.855 3.651a7.6 7.6 0 01-7.776-6.455l-.041-.269a7.602 7.602 0 017.276-8.743l106.894-3.386a7.601 7.601 0 017.759 6.456 7.617 7.617 0 01-1.666 6.002 7.6 7.6 0 01-5.591 2.744z" fill="#F4F7FA"/></g><defs><linearGradient id="paint0_linear_1457_20394" x1="454.252" y1="57.546" x2="-99.704" y2="113.751" gradientUnits="userSpaceOnUse"><stop stop-color="#7C4EAB"/><stop offset="1" stop-color="#DD51D4"/></linearGradient><linearGradient id="paint1_linear_1457_20394" x1="102972" y1="135393" x2="105430" y2="172655" gradientUnits="userSpaceOnUse"><stop stop-color="#E38DDD"/><stop offset="1" stop-color="#9571F6"/></linearGradient><linearGradient id="paint2_linear_1457_20394" x1="-13.588" y1="270.748" x2="41.134" y2="362.515" gradientUnits="userSpaceOnUse"><stop stop-color="#FF9085"/><stop offset="1" stop-color="#FB6FBB"/></linearGradient><linearGradient id="paint3_linear_1457_20394" x1="24160.8" y1="380126" x2="80098.9" y2="407072" gradientUnits="userSpaceOnUse"><stop stop-color="#FF9085"/><stop offset="1" stop-color="#FB6FBB"/></linearGradient><linearGradient id="paint4_linear_1457_20394" x1="120263" y1="354142" x2="301982" y2="513801" gradientUnits="userSpaceOnUse"><stop stop-color="#FF9085"/><stop offset="1" stop-color="#FB6FBB"/></linearGradient><linearGradient id="paint5_linear_1457_20394" x1="103738" y1="121257" x2="111476" y2="173227" gradientUnits="userSpaceOnUse"><stop stop-color="#E38DDD"/><stop offset="1" stop-color="#9571F6"/></linearGradient><linearGradient id="paint6_linear_1457_20394" x1="185970" y1="423708" x2="362553" y2="560160" gradientUnits="userSpaceOnUse"><stop stop-color="#FF9085"/><stop offset="1" stop-color="#FB6FBB"/></linearGradient><linearGradient id="paint7_linear_1457_20394" x1="11984.9" y1="25027.6" x2="12178.7" y2="25099.6" gradientUnits="userSpaceOnUse"><stop stop-color="#E38DDD"/><stop offset="1" stop-color="#9571F6"/></linearGradient><linearGradient id="paint8_linear_1457_20394" x1="18404.5" y1="25039.5" x2="18598.9" y2="25111.6" gradientUnits="userSpaceOnUse"><stop stop-color="#E38DDD"/><stop offset="1" stop-color="#9571F6"/></linearGradient><linearGradient id="paint9_linear_1457_20394" x1="156.345" y1="245.316" x2="505.686" y2="190.039" gradientUnits="userSpaceOnUse"><stop stop-color="#444B8C"/><stop offset="1" stop-color="#26264F"/></linearGradient><linearGradient id="paint10_linear_1457_20394" x1="313.394" y1="109.702" x2="-30.638" y2="823.289" gradientUnits="userSpaceOnUse"><stop stop-color="#FFC444"/><stop offset="1" stop-color="#F36F56"/></linearGradient><linearGradient id="paint11_linear_1457_20394" x1="359.308" y1="103.317" x2="85.353" y2="119.797" gradientUnits="userSpaceOnUse"><stop stop-color="#7C4EAB"/><stop offset="1" stop-color="#DD51D4"/></linearGradient><linearGradient id="paint12_linear_1457_20394" x1="358.719" y1="100.788" x2="97.864" y2="116.948" gradientUnits="userSpaceOnUse"><stop stop-color="#7C4EAB"/><stop offset="1" stop-color="#DD51D4"/></linearGradient><linearGradient id="paint13_linear_1457_20394" x1="246938" y1="61494.2" x2="730357" y2="61494.2" gradientUnits="userSpaceOnUse"><stop stop-color="#FF9085"/><stop offset="1" stop-color="#FB6FBB"/></linearGradient><clipPath id="clip0_1457_20394"><path fill="#fff" d="M0 0h456v469H0z"/></clipPath></defs></svg>