<svg width="474" height="474" fill="none" xmlns="http://www.w3.org/2000/svg"><g clip-path="url(#clip0_1457_20325)"><path opacity=".5" d="M360.766 28.49c15.823 22.885-2.729 59.986 20.744 77.198 22.852 16.753 50.923-10.712 72.458 3.713 31.946 21.394 26.113 119.288-20.595 180.111-14.046 18.288-25.783 25.409-30.982 46.096-11.16 44.419 28.067 70.843 20.602 92.812-16.801 49.468-275.312 90.976-379.036-57.689-48.446-69.433-55.692-169.695-12.41-245.843 78.211-137.6 293.721-147.747 329.219-96.399z" fill="url(#paint0_linear_1457_20325)" fill-opacity=".5"/><path d="M0 416.014l462.743-3.443v10.187a5.602 5.602 0 01-4.748 5.535l-130.851 20.059a21.02 21.02 0 01-4.702.189L5.024 425.672a5.415 5.415 0 01-5.029-5.403L0 416.014z" fill="url(#paint1_linear_1457_20325)"/><path d="M167.927 399.502l290.028 18.635c5.19.327 9.41-3.209 9.41-7.916V221.72c0-4.705-4.22-8.519-9.41-8.519H167.927a7.716 7.716 0 00-7.734 7.7v170.398c0 4.258 3.458 7.929 7.734 8.203z" fill="url(#paint2_linear_1457_20325)"/><path d="M163.303 399.502l290.028 18.635c5.19.327 9.41-3.209 9.41-7.916V221.72c0-4.705-4.22-8.519-9.41-8.519H163.303a7.716 7.716 0 00-7.734 7.7v170.398c0 4.258 3.458 7.929 7.734 8.203z" fill="url(#paint3_linear_1457_20325)"/><path d="M172.338 387.489l270.127 16.186c4.223.253 7.655-2.655 7.655-6.495V232.139c0-3.84-3.425-6.967-7.655-6.983l-270.127-1.016a6.326 6.326 0 00-6.38 6.31v150.317c0 3.503 2.853 6.51 6.38 6.722z" fill="url(#paint4_linear_1457_20325)"/><path d="M298.074 218.355c0 1.752 1.493 3.177 3.336 3.182 1.843.005 3.344-1.414 3.344-3.17 0-1.757-1.498-3.179-3.344-3.18-1.847-.002-3.336 1.417-3.336 3.168z" fill="#fff"/><path d="M233.181 347.803c22.359-10.938 39.94 2.921 56.906-10.752 10.286-8.29 5.236-14.472 17.892-26.86 14.019-13.722 23.146-9.11 37.234-21.458 17.815-15.616 8.905-27.764 24.25-38.977 18.615-13.6 38.689-1.011 56.41-14.055 7.642-5.626 11.836-13.805 14.028-22.505h17.335c3.039 0 5.507 2.239 5.507 5v195.405c0 2.761-2.468 4.84-5.507 4.644l-295.587-19.081a4.842 4.842 0 01-3.562-1.979c21.637-.716 34.93-7.311 43.429-14.13 16.622-13.33 13.739-26.483 31.665-35.252z" fill="#fff" opacity=".48"/><path d="M151.743 398.657l311 19.614-135.602 20.788a21.11 21.11 0 01-4.699.186L-.005 416.013l146.795-17.224a27.691 27.691 0 014.953-.132z" fill="url(#paint5_linear_1457_20325)"/><path style="mix-blend-mode:multiply" opacity=".3" d="M417.362 418.765l-258.916-16.572-80.133 9.325L335 429.234l82.362-10.469z" fill="url(#paint6_linear_1457_20325)"/><path d="M31.033 142.414c-8.482.715-15.995-6.155-16.769-15.343-.773-9.188 5.478-17.215 13.965-17.929.44-.038.876-.042 1.305-.039a96.207 96.207 0 012.21-13.911 14.555 14.555 0 01-1.202-.54c-7.737-3.976-11.112-13.937-7.54-22.251 3.573-8.314 12.744-11.833 20.48-7.858.405.208.79.44 1.17.68A88.495 88.495 0 0153.02 54.48c-.28-.366-.558-.74-.815-1.142-4.915-7.6-3.253-17.986 3.709-23.198 6.962-5.213 16.593-3.279 21.506 4.32.25.39.474.79.691 1.193a78.25 78.25 0 0112.285-4.695c-.075-.463-.145-.93-.184-1.406-.775-9.186-2.447-19.56 6.048-20.142 19.663-1.339 23.912 8.374 24.693 17.56.039.477.049.948.053 1.416a78.38 78.38 0 0112.896 2.577c.147-.434.3-.866.489-1.293 3.574-8.318 2.928-13.862 11.05-10.744 17.712 6.792 20.542 16.825 16.964 25.14a17.16 17.16 0 01-.613 1.255 88.435 88.435 0 0110.048 9.193c.335-.299.676-.594 1.039-.866 6.962-5.219 16.591-3.278 21.506 4.322 4.915 7.6 3.253 17.986-3.711 23.198-.357.268-.724.504-1.094.732a96.397 96.397 0 014.507 13.347c.427-.075.856-.143 1.305-.18 8.482-.715 15.985 6.154 16.768 15.342.783 9.188-5.479 17.215-13.966 17.929-.439.038-.874.043-1.305.04a96.34 96.34 0 01-2.21 13.911c.403.163.804.336 1.2.539 7.739 3.976 11.114 13.938 7.54 22.253-3.574 8.316-12.742 11.832-20.478 7.856-.405-.207-.791-.44-1.172-.68a87.93 87.93 0 01-8.368 10.744c.283.367.558.739.816 1.141 4.913 7.6 3.253 17.987-3.711 23.201-6.964 5.213-22.036 2.827-26.949-4.772-.253-.39 4.969-.341 4.752-.744a78.194 78.194 0 01-12.283 4.695c.075.463.143.93.184 1.406.773 9.187-5.479 17.215-13.966 17.929-8.488.715-15.996-6.154-16.769-15.341a17.75 17.75 0 01-.054-1.415 78.55 78.55 0 01-12.896-2.577 14.58 14.58 0 01-.49 1.293c-3.572 8.317-12.741 11.832-20.478 7.856-7.737-3.976-11.113-13.937-7.54-22.251.187-.434.397-.848.614-1.256a88.329 88.329 0 01-10.048-9.193c-.326.298-.675.594-1.04.866-6.963 5.219-16.592 3.278-21.505-4.322-4.913-7.599-3.253-17.986 3.711-23.198.356-.268.724-.503 1.093-.733a96.146 96.146 0 01-4.505-13.346c-.434.068-.865.137-1.304.174zm87.27 36.728c30.815-2.594 53.518-31.741 50.707-65.099-2.81-33.36-30.079-58.3-60.891-55.705-30.812 2.595-53.522 31.746-50.708 65.101 2.814 33.356 30.07 58.298 60.885 55.703h.007z" fill="#BFC6D1"/><path d="M30.547 94.65c-7.737-3.976-11.112-13.937-7.54-22.252 3.573-8.316 12.743-11.832 20.48-7.856.405.207.79.44 1.17.68a88.377 88.377 0 018.368-10.744 16.3 16.3 0 01-.816-1.142c-4.915-7.6-8.69-22.668-1.228-27.145 14.16-8.48 21.532.669 26.443 8.267.252.39.475.79.694 1.194A78.161 78.161 0 0190.4 30.956c-.075-.463-.146-.93-.185-1.405-.422-5 1.25-9.647 4.219-12.967a2591.397 2591.397 0 015.314 43.142c-26.447 6.656-44.89 33.445-42.34 63.705 2.16 25.64 18.77 46.29 40.332 53.302-.049 2.804-.122 5.614-.096 8.42.07 7.616.564 15.247 1.067 22.873a77.77 77.77 0 01-6.199-1.517 14.58 14.58 0 01-.49 1.293c-3.572 8.318-11.556 13.373-25.792 6.687-7.874-3.696-5.799-12.771-2.225-21.085.186-.434.397-.848.613-1.256a88.345 88.345 0 01-10.048-9.193c-.326.298-.675.594-1.039.866-6.963 5.219-22.584 2.283-27.499-5.313-4.915-7.597 2.74-16.995 9.704-22.207a14.9 14.9 0 011.093-.734 96.178 96.178 0 01-4.505-13.345c-.428.075-.858.143-1.297.181-8.482.714-15.996-6.155-16.769-15.343-.773-9.188 5.478-17.215 13.967-17.93.438-.037.874-.042 1.305-.039a96.235 96.235 0 012.21-13.91 12.273 12.273 0 01-1.194-.53z" fill="#BFC6D1"/><path d="M23.115 140.201c-8.482.714-15.994-6.153-16.769-15.341-.775-9.188 5.48-17.217 13.967-17.939a13.95 13.95 0 011.305-.038 96.22 96.22 0 012.21-13.912 14.522 14.522 0 01-1.202-.54c-7.737-3.974-11.112-13.937-7.538-22.251 3.574-8.314 12.741-11.832 20.478-7.858.405.21.79.442 1.17.68a88.482 88.482 0 018.37-10.744c-.283-.365-.56-.737-.816-1.141-4.913-7.6-3.253-17.987 3.71-23.199 6.964-5.212 16.592-3.278 21.505 4.322.253.39.475.79.693 1.192a78.151 78.151 0 0112.283-4.695 18.786 18.786 0 01-.184-1.404c-.775-9.188 5.479-17.217 13.966-17.931 8.487-.715 15.994 6.155 16.769 15.343.039.476.05.946.054 1.415a78.342 78.342 0 0112.894 2.575c.149-.433.301-.866.49-1.291 3.574-8.317 12.743-11.832 20.48-7.858 7.736 3.975 11.113 13.937 7.539 22.251-.186.436-.396.848-.613 1.256a88.375 88.375 0 0110.048 9.195 15.3 15.3 0 011.039-.868c6.964-5.218 16.591-3.278 21.506 4.322 4.915 7.6 3.252 17.986-3.711 23.199a14.71 14.71 0 01-1.095.733 95.953 95.953 0 014.507 13.345c.428-.075.857-.143 1.305-.179 8.482-.716 15.996 6.153 16.769 15.341.773 9.188-5.479 17.215-13.966 17.94-.439.035-.875.04-1.305.037a96.231 96.231 0 01-2.211 13.913c.403.163.806.336 1.203.538 7.736 3.976 11.111 13.939 7.539 22.253-3.572 8.314-12.743 11.831-20.48 7.857a15.715 15.715 0 01-1.169-.682 88.143 88.143 0 01-8.37 10.744c.282.367.559.739.816 1.142 4.913 7.599 3.252 17.985-3.711 23.198-6.964 5.214-16.591 3.278-21.505-4.321-.252-.39-.474-.791-.693-1.194a78.363 78.363 0 01-12.283 4.697c.075.463.144.928.184 1.404.775 9.188-5.479 17.215-13.966 17.929-8.487.715-15.986-6.153-16.769-15.341a17.31 17.31 0 01-.052-1.416 78.227 78.227 0 01-12.896-2.575c-.147.434-.3.866-.49 1.292-3.574 8.317-12.743 11.832-20.48 7.857-7.736-3.974-11.113-13.938-7.539-22.252.186-.434.397-.848.614-1.256a88.177 88.177 0 01-10.049-9.193c-.326.3-.675.593-1.039.866-6.963 5.218-16.59 3.279-21.506-4.32-4.914-7.6-3.252-17.987 3.712-23.2.357-.266.724-.503 1.094-.733a95.969 95.969 0 01-4.507-13.346 14.73 14.73 0 01-1.305.182zm87.269 36.728c30.816-2.594 53.519-31.741 50.708-65.099-2.81-33.36-30.07-58.3-60.885-55.703-30.815 2.596-53.524 31.74-50.714 65.106 2.81 33.367 30.062 58.291 60.891 55.696z" fill="#D8DEE8"/><path d="M174.184 105.657v78.606c0 2.609-1.785 4.682-3.981 4.628l-129.896-3.18c-1.998-.049-3.616-2.102-3.616-4.586v-74.834l137.493-.634z" fill="#fff"/><path d="M40.307 96.76l129.896-1.05c2.196-.018 3.981 2.083 3.981 4.694v8.055l-137.493.499v-7.665c0-2.489 1.618-4.523 3.616-4.532z" fill="url(#paint7_linear_1457_20325)"/><path d="M141.738 147.163l-7.26-30.433c-10.946 4.24-18.826 16.516-18.885 31.03l26.145-.597z" fill="url(#paint8_linear_1457_20325)"/><path d="M122.324 149.737c.404 6.921 3.166 13.097 7.33 17.361l11.383-17.803-18.713.442zm21.041-3.603c4.404-5.018 9.74-11.09 13.986-15.961-3.767-4.292-8.848-6.928-14.422-6.936a17.543 17.543 0 00-4.894.688l5.33 22.209zm.919 1.916l16.039 14.28c2.251-3.961 3.568-8.756 3.568-13.934 0-6.385-2-12.231-5.29-16.67l-3.915 4.478c-4.338 4.948-8.685 9.893-10.402 11.846zm-.459 2.241l.308 22.814c6.093-.299 11.508-3.751 15.125-9.058l-15.433-13.756zm-1.775.949l-10.993 17.181c3.205 2.756 7.086 4.465 11.29 4.684l-.297-21.865z" fill="#F4F7FA"/><path d="M46.086 130.631l65.827.284v-7.673l-65.827-.103v7.492zm0 13.559l65.827.61v-7.673l-65.827-.429v7.492zm0 13.559l65.827.934v-7.673l-65.827-.753v7.492zm0 13.559l65.827 1.26v-7.673l-65.827-1.081v7.494z" fill="#D8DEE8"/><path d="M42 103.035c0 1.156.79 2.089 1.761 2.084.973-.005 1.765-.948 1.765-2.105 0-1.158-.79-2.091-1.765-2.086-.973.005-1.761.95-1.761 2.107zm268.779 173.103v95.281c0 3.164-2.208 5.595-4.928 5.432l-159.835-9.587c-2.446-.147-4.422-2.69-4.422-5.682v-90.118l169.185 4.674z" fill="#fff"/><path d="M146.016 260.128l159.835 3.803c2.72.065 4.928 2.681 4.928 5.845v9.763l-169.185-4.858v-9.234c0-2.999 1.979-5.376 4.422-5.319z" fill="url(#paint9_linear_1457_20325)"/><path d="M158.792 351.678l132.99 7.246v-64.963l-132.99-4.46v62.177z" fill="#F4F7FA"/><path d="M158.792 351.679l132.982 7.245v-41.761c-4.352 28.181-8.986 34.236-12.478 34.358-4.913.173-7.558-11.406-14.983-12.068-7.366-.66-9.851 10.315-15.366 9.653-10.475-1.259-13.322-42.442-21.809-43.054-6.737-.489-11.293 25.069-17.226 23.777-4.334-.942-5.383-15.355-8.663-15.346-2.974.01-3.099 11.86-7.014 12.783-5.732 1.352-11.304-22.736-19.199-23.205-4.37-.261-9.81 6.696-16.254 30.87l.01 16.748z" fill="url(#paint10_linear_1457_20325)"/><path d="M147 267.483c0 1.401.979 2.563 2.179 2.594 1.201.031 2.184-1.078 2.184-2.48 0-1.403-.978-2.565-2.184-2.596-1.205-.031-2.179 1.079-2.179 2.482zm297.233-166.825v136.607c0 4.535-3.3 8.154-7.363 8.086l-233.446-3.986c-3.491-.06-6.315-3.506-6.315-7.696V107.431l247.124-6.773z" fill="#fff"/><path d="M203.424 91.2l233.446-7.64c4.063-.133 7.363 3.435 7.363 7.97v14l-247.127 6.402V98.995c.003-4.191 2.832-7.681 6.318-7.796z" fill="url(#paint11_linear_1457_20325)"/><path d="M204 101.732c0 2.006 1.455 3.588 3.251 3.541 1.796-.047 3.263-1.722 3.263-3.731 0-2.01-1.459-3.588-3.263-3.541-1.804.047-3.251 1.725-3.251 3.731z" fill="#fff"/><path d="M393.758 226.942l18.391.214v-101.52l-18.391.367v100.939z" fill="#F4F7FA"/><path d="M393.758 226.942l18.391.214v-48.2l-18.391.062v47.924z" fill="url(#paint12_linear_1457_20325)"/><path d="M368.517 226.65l18.101.21V126.145l-18.101.36V226.65z" fill="#F4F7FA"/><path d="M368.517 226.65l18.101.21v-23.909l-18.101-.074v23.773z" fill="url(#paint13_linear_1457_20325)"/><path d="M343.668 226.363l17.819.207v-99.924l-17.819.355v99.362z" fill="#F4F7FA"/><path d="M343.668 226.363l17.819.207v-12.455l-17.819-.135v12.383z" fill="url(#paint14_linear_1457_20325)"/><path d="M319.205 226.081l17.545.202V127.14l-17.545.349v98.592z" fill="#F4F7FA"/><path d="M319.205 226.081l17.545.202v-77.667l-17.545.23v77.235z" fill="url(#paint15_linear_1457_20325)"/><path d="M295.121 225.802l17.273.201v-98.379l-17.273.344v97.834z" fill="#F4F7FA"/><path d="M295.121 225.802l17.273.201v-68.311l-17.273.179v67.931z" fill="url(#paint16_linear_1457_20325)"/><path d="M271.401 225.528l17.012.197v-97.623l-17.012.339v97.087z" fill="#F4F7FA"/><path d="M271.401 225.528l17.012.197v-83.428l-17.012.261v82.97z" fill="url(#paint17_linear_1457_20325)"/><path d="M248.043 225.257l16.753.194v-96.878l-16.753.335v96.349z" fill="#F4F7FA"/><path d="M248.043 225.257l16.753.194v-59.506l-16.753.131v59.181z" fill="url(#paint18_linear_1457_20325)"/><path d="M225.036 224.991l16.501.191v-96.146l-16.501.33v95.625z" fill="#F4F7FA"/><path d="M225.036 224.991l16.501.191v-33.38l-16.501-.009v33.198z" fill="url(#paint19_linear_1457_20325)"/><path d="M453.298 287.136v79.302c0 2.633-1.724 4.671-3.851 4.552l-125.991-7.04c-1.943-.109-3.517-2.234-3.517-4.748v-75.691l133.359 3.625z" fill="#fff"/><path d="M323.456 273.985l125.991 2.993c2.12.05 3.851 2.224 3.851 4.858v8.126l-133.359-3.751v-7.766c0-2.506 1.574-4.507 3.517-4.46z" fill="url(#paint20_linear_1457_20325)"/><path d="M326 280.07c0 1.168.763 2.133 1.704 2.159.941.026 1.708-.902 1.708-2.071s-.765-2.135-1.708-2.158c-.943-.022-1.704.91-1.704 2.07z" fill="#fff"/><path d="M433.021 325.125c-1.169-2.784-3.362-4.821-5.937-5.296l-.181-13.558c7.325.6 13.594 6.459 16.39 14.535l-10.272 4.319z" fill="url(#paint21_linear_1457_20325)"/><path d="M425.021 319.792c-3.481.517-6.198 3.963-6.524 8.366l-10.752.103c.137-11.985 7.6-21.498 17.091-22.016l.185 13.547zm-6.434 10.931c.633 4.544 3.786 8.118 7.592 8.291a6.251 6.251 0 003.153-.693l5.73 11.824a15.135 15.135 0 01-8.876 2.369c-9.608-.481-17.454-9.995-18.345-21.69l10.746-.101zm18.24 18.148l-5.738-11.827c1.732-1.694 2.838-4.336 2.838-7.348 0-.711-.063-1.421-.188-2.12l10.277-4.311c.552 2.257.831 4.572.829 6.896 0 7.903-3.176 14.741-8.018 18.71zm-43.825-25.366c-1.142-2.743-3.271-4.752-5.776-5.219l-.175-13.372c7.125.587 13.213 6.36 15.94 14.326l-9.989 4.265z" fill="#D8DEE8"/><path d="M385.222 318.251c-3.385.512-6.024 3.913-6.339 8.255l-10.461.107c.134-11.82 7.394-21.2 16.625-21.726l.175 13.364z" fill="url(#paint22_linear_1457_20325)"/><path d="M378.962 329.037c.615 4.48 3.683 8.004 7.384 8.172a6.022 6.022 0 003.067-.685l5.575 11.657a14.572 14.572 0 01-8.645 2.342c-9.347-.466-16.981-9.845-17.845-21.388l10.464-.098zm17.744 17.888l-5.59-11.662c1.693-1.673 2.773-4.277 2.773-7.24 0-.703-.061-1.404-.183-2.096l9.991-4.265c.537 2.227.808 4.509.806 6.799 0 7.799-3.088 14.546-7.797 18.464zm-42.637-24.994c-1.106-2.705-3.183-4.687-5.62-5.145l-.163-13.19c6.934.576 12.867 6.272 15.513 14.125l-9.73 4.21zm-7.57-5.179c-3.293.507-5.863 3.863-6.169 8.154l-10.181.111c.129-11.66 7.196-20.925 16.18-21.441l.17 13.176zm-6.092 10.644c.599 4.42 3.589 7.894 7.178 8.057a5.766 5.766 0 002.985-.679l5.425 11.496a14.047 14.047 0 01-8.41 2.317c-9.096-.455-16.526-9.702-17.368-21.088l10.19-.103z" fill="#D8DEE8"/><path d="M357.675 345.031l-5.43-11.499c1.631-1.653 2.686-4.223 2.686-7.153 0-.693-.059-1.385-.177-2.068l9.725-4.205c.522 2.198.785 4.448.783 6.706-.004 7.695-3.008 14.35-7.587 18.219z" fill="url(#paint23_linear_1457_20325)"/></g><defs><linearGradient id="paint0_linear_1457_20325" x1="2.961" y1="45.228" x2="577.636" y2="102.203" gradientUnits="userSpaceOnUse"><stop stop-color="#7C4EAB"/><stop offset="1" stop-color="#DD51D4"/></linearGradient><linearGradient id="paint1_linear_1457_20325" x1="267.136" y1="433.237" x2="299.595" y2="446.873" gradientUnits="userSpaceOnUse"><stop stop-color="#40447E"/><stop offset="1" stop-color="#3C3B6B"/></linearGradient><linearGradient id="paint2_linear_1457_20325" x1="-405006" y1="459278" x2="-353502" y2="491697" gradientUnits="userSpaceOnUse"><stop stop-color="#40447E"/><stop offset="1" stop-color="#3C3B6B"/></linearGradient><linearGradient id="paint3_linear_1457_20325" x1="-135273" y1="467785" x2="-713712" y2="467785" gradientUnits="userSpaceOnUse"><stop stop-color="#40447E"/><stop offset="1" stop-color="#3C3B6B"/></linearGradient><linearGradient id="paint4_linear_1457_20325" x1="165.958" y1="241.272" x2="507.533" y2="295.204" gradientUnits="userSpaceOnUse"><stop stop-color="#7C4EAB"/><stop offset="1" stop-color="#DD51D4"/></linearGradient><linearGradient id="paint5_linear_1457_20325" x1="-204021" y1="119016" x2="-1516750" y2="119016" gradientUnits="userSpaceOnUse"><stop stop-color="#40447E"/><stop offset="1" stop-color="#3C3B6B"/></linearGradient><linearGradient id="paint6_linear_1457_20325" x1="-117304" y1="69332" x2="-822024" y2="69332" gradientUnits="userSpaceOnUse"><stop stop-color="#40447E"/><stop offset="1" stop-color="#3C3B6B"/></linearGradient><linearGradient id="paint7_linear_1457_20325" x1="-371243" y1="11620.4" x2="-370593" y2="22644.3" gradientUnits="userSpaceOnUse"><stop stop-color="#FFC444"/><stop offset="1" stop-color="#F36F56"/></linearGradient><linearGradient id="paint8_linear_1457_20325" x1="-203724" y1="33443.1" x2="-197431" y2="52191.4" gradientUnits="userSpaceOnUse"><stop stop-color="#FFC444"/><stop offset="1" stop-color="#F36F56"/></linearGradient><linearGradient id="paint9_linear_1457_20325" x1="211.775" y1="247.742" x2="289.644" y2="375.07" gradientUnits="userSpaceOnUse"><stop stop-color="#AA80F9"/><stop offset="1" stop-color="#6165D7"/></linearGradient><linearGradient id="paint10_linear_1457_20325" x1="-246141" y1="122151" x2="-248293" y2="151653" gradientUnits="userSpaceOnUse"><stop stop-color="#AA80F9"/><stop offset="1" stop-color="#6165D7"/></linearGradient><linearGradient id="paint11_linear_1457_20325" x1="301.304" y1="68.829" x2="405.965" y2="239.964" gradientUnits="userSpaceOnUse"><stop stop-color="#FF9085"/><stop offset="1" stop-color="#FB6FBB"/></linearGradient><linearGradient id="paint12_linear_1457_20325" x1="-8822.39" y1="50149.6" x2="4104.54" y2="65542.8" gradientUnits="userSpaceOnUse"><stop stop-color="#FF9085"/><stop offset="1" stop-color="#FB6FBB"/></linearGradient><linearGradient id="paint13_linear_1457_20325" x1="-10978.9" y1="29044.6" x2="-8389.02" y2="35144.6" gradientUnits="userSpaceOnUse"><stop stop-color="#FF9085"/><stop offset="1" stop-color="#FB6FBB"/></linearGradient><linearGradient id="paint14_linear_1457_20325" x1="-13304.6" y1="16330" x2="-12804.5" y2="18538.9" gradientUnits="userSpaceOnUse"><stop stop-color="#FF9085"/><stop offset="1" stop-color="#FB6FBB"/></linearGradient><linearGradient id="paint15_linear_1457_20325" x1="-17164.4" y1="64573.9" x2="13457.4" y2="86161.4" gradientUnits="userSpaceOnUse"><stop stop-color="#FF9085"/><stop offset="1" stop-color="#FB6FBB"/></linearGradient><linearGradient id="paint16_linear_1457_20325" x1="-19282" y1="61130.5" x2="5384.3" y2="80594.5" gradientUnits="userSpaceOnUse"><stop stop-color="#FF9085"/><stop offset="1" stop-color="#FB6FBB"/></linearGradient><linearGradient id="paint17_linear_1457_20325" x1="-21810.4" y1="65806.4" x2="11943.1" y2="87285.6" gradientUnits="userSpaceOnUse"><stop stop-color="#FF9085"/><stop offset="1" stop-color="#FB6FBB"/></linearGradient><linearGradient id="paint18_linear_1457_20325" x1="-23416.8" y1="56725.1" x2="-4161.39" y2="73643" gradientUnits="userSpaceOnUse"><stop stop-color="#FF9085"/><stop offset="1" stop-color="#FB6FBB"/></linearGradient><linearGradient id="paint19_linear_1457_20325" x1="-24895.6" y1="37892.7" x2="-18953.6" y2="47057.4" gradientUnits="userSpaceOnUse"><stop stop-color="#FF9085"/><stop offset="1" stop-color="#FB6FBB"/></linearGradient><linearGradient id="paint20_linear_1457_20325" x1="375.155" y1="264.476" x2="436.949" y2="365.516" gradientUnits="userSpaceOnUse"><stop stop-color="#E38DDD"/><stop offset="1" stop-color="#9571F6"/></linearGradient><linearGradient id="paint21_linear_1457_20325" x1="-10543.5" y1="41998.6" x2="-7435.01" y2="46287.8" gradientUnits="userSpaceOnUse"><stop stop-color="#FF9085"/><stop offset="1" stop-color="#FB6FBB"/></linearGradient><linearGradient id="paint22_linear_1457_20325" x1="-15801" y1="48598.6" x2="-16598.6" y2="60406" gradientUnits="userSpaceOnUse"><stop stop-color="#FFC444"/><stop offset="1" stop-color="#F36F56"/></linearGradient><linearGradient id="paint23_linear_1457_20325" x1="-13765.6" y1="57554.1" x2="-11814.2" y2="69120.3" gradientUnits="userSpaceOnUse"><stop stop-color="#AA80F9"/><stop offset="1" stop-color="#6165D7"/></linearGradient><clipPath id="clip0_1457_20325"><path fill="#fff" transform="matrix(-1 0 0 1 474 0)" d="M0 0h474v474H0z"/></clipPath></defs></svg>