<svg width="48" height="48" fill="none" xmlns="http://www.w3.org/2000/svg"><path d="M3.2 40.6h21.6V43a2.4 2.4 0 002.4 2.4h3.2c.7 0 1.363-.313 1.813-.837.012 0 .024 0 .037-.013.587.55 1.35.85 2.15.85H44a2.4 2.4 0 002.4-2.4c0-.413-.112-.825-.325-1.175a2.36 2.36 0 00.8-3.2c.6-.375 1-1 1.1-1.7.1-.7-.125-1.412-.6-1.925.638-.7.8-1.712.413-2.575a2.417 2.417 0 00-2.2-1.425h-2.4V6.2c0-1.763-1.438-3.2-3.2-3.2H3.2A3.206 3.206 0 000 6.2v31.2c0 1.763 1.438 3.2 3.2 3.2zm27.2 3.2h-3.2a.806.806 0 01-.8-.8v-7.2c0-.438.363-.8.8-.8h3.2c.438 0 .8.362.8.8V43c0 .438-.363.8-.8.8zm16-10.4c0 .438-.362.8-.8.8h-2.4c-.438 0-.8.362-.8.8 0 .438.363.8.8.8h2.4c.438 0 .8.363.8.8 0 .438-.362.8-.8.8h-2.4c-.438 0-.8.363-.8.8 0 .438.363.8.8.8h1.6c.438 0 .8.362.8.8 0 .438-.363.8-.8.8h-1.6c-.438 0-.8.362-.8.8 0 .438.363.8.8.8h.8c.438 0 .8.362.8.8 0 .438-.362.8-.8.8h-9.6c-.887 0-1.6-.712-1.6-1.6v-6.738c1-.625 1.75-1.587 2.125-2.7A20.952 20.952 0 0036 26.138c0-.112.075-.2.175-.237.275-.05.988-.175 1.663 1.15.374.762.562 1.6.55 2.462V31.8c0 .437.362.8.8.8h6.4c.45 0 .812.362.812.8zM40 31v-1.488a7.03 7.03 0 00-.725-3.187c-.788-1.537-1.987-2.25-3.375-2-.875.163-1.5.925-1.5 1.813 0 2.074-.337 4.15-.987 6.125a3.537 3.537 0 01-1.388 1.8 2.446 2.446 0 00-1.625-.65h-3.2a2.4 2.4 0 00-2.4 2.4v3.2H3.2c-.888 0-1.6-.713-1.6-1.6V11h40v20H40zM3.2 4.6H40c.888 0 1.6.713 1.6 1.6v3.2h-40V6.2c0-.888.712-1.6 1.6-1.6z" fill="#fff"/><path fill-rule="evenodd" clip-rule="evenodd" d="M4.8 6.999c0 .437-.363.8-.8.8a.806.806 0 01-.8-.8c0-.438.362-.8.8-.8.437 0 .8.362.8.8zm3.2 0c0 .437-.362.8-.8.8a.806.806 0 01-.8-.8c0-.438.363-.8.8-.8.438 0 .8.362.8.8zm3.2 0c0 .437-.363.8-.8.8a.806.806 0 01-.8-.8c0-.438.362-.8.8-.8.437 0 .8.362.8.8z" fill="#fff"/><path d="M6.4 27.8h12.8a2.4 2.4 0 002.4-2.4v-9.6a2.4 2.4 0 00-2.4-2.4H6.4A2.4 2.4 0 004 15.8v9.6a2.4 2.4 0 002.4 2.4zm1.963-1.6l3.7-5.825 1.774 2.226-2.274 3.6h-3.2zm10.837 0h-5.737l4.212-6.624L20 22.488v2.925a.803.803 0 01-.8.788zM5.6 15.8c0-.437.363-.8.8-.8h12.8c.438 0 .8.363.8.8v4.125l-1.775-2.224a.81.81 0 00-.663-.3.804.804 0 00-.637.375l-2.163 3.4-2.137-2.675a.81.81 0 00-.662-.3.804.804 0 00-.638.375L6.475 26.2H6.4a.806.806 0 01-.8-.8v-9.6z" fill="#fff"/><path fill-rule="evenodd" clip-rule="evenodd" d="M8.8 17.4c0 .437-.363.8-.8.8a.806.806 0 01-.8-.8c0-.438.362-.8.8-.8.437 0 .8.362.8.8zm29.6-3.201H24.8c-.438 0-.8.363-.8.8 0 .438.363.8.8.8h13.6c.438 0 .8-.362.8-.8 0-.438-.363-.8-.8-.8zm0 3.201H24.8c-.438 0-.8.363-.8.8 0 .438.363.8.8.8h13.6c.438 0 .8-.362.8-.8 0-.437-.363-.8-.8-.8zm0 3.2H24.8c-.438 0-.8.362-.8.8 0 .437.363.8.8.8h13.6c.438 0 .8-.363.8-.8 0-.438-.363-.8-.8-.8zM32 23.801h-7.2c-.438 0-.8.363-.8.8 0 .438.363.8.8.8H32c.438 0 .8-.363.8-.8 0-.438-.362-.8-.8-.8zM23.2 31H4.8c-.438 0-.8.363-.8.8 0 .437.362.8.8.8h18.4c.438 0 .8-.363.8-.8 0-.438-.363-.8-.8-.8zm-2.4 3.199h-16c-.438 0-.8.363-.8.8 0 .438.362.8.8.8h16c.438 0 .8-.362.8-.8 0-.438-.363-.8-.8-.8z" fill="#fff"/></svg>