<svg width="48" height="48" fill="none" xmlns="http://www.w3.org/2000/svg"><path d="M23.463 47.931c-.89-.205-1.712-.479-2.26-1.232-.342-.48-.616-1.096-.89-1.643-.137-.274-.205-.411-.48-.48a20.344 20.344 0 01-5.203-1.78 20.34 20.34 0 01-6.71-5.34c-.206-.275-.411-.275-.685-.206-1.712.616-3.561-.137-4.451-1.712-.89-1.644-.548-3.63.958-4.725.274-.205.343-.41.206-.753-1.233-4.04-1.233-8.148 0-12.188.068-.274.068-.48-.206-.685-1.506-1.096-1.917-3.081-1.027-4.725.89-1.643 2.74-2.328 4.52-1.712.342.137.479 0 .684-.205a20.34 20.34 0 016.71-5.341c1.576-.822 3.287-1.37 5-1.712.41-.068.684-.205.821-.753C20.724 1.096 22.299 0 24.01 0c1.712 0 3.219 1.233 3.561 2.876.069.41.274.548.617.616a19.63 19.63 0 017.669 3.287c1.575 1.095 2.944 2.328 4.108 3.766.205.274.41.342.753.205 1.644-.616 3.56.137 4.451 1.644.89 1.643.548 3.629-.89 4.724-.274.206-.343.411-.274.754 1.232 4.04 1.232 8.148 0 12.188-.069.274-.069.48.205.685 1.37 1.027 1.85 2.944 1.164 4.519-.753 1.643-2.533 2.602-4.177 2.123-.753-.206-1.095 0-1.574.547-3.013 3.424-6.848 5.615-11.298 6.574-.411.068-.685.274-.754.753-.41 1.438-1.37 2.26-2.739 2.67-.137 0-.205.069-.342.069-.41-.069-.685-.069-1.027-.069zm.48-34.442c-5.753 0-10.477 4.725-10.477 10.477 0 5.752 4.724 10.476 10.476 10.476 5.752 0 10.477-4.724 10.477-10.476 0-5.752-4.725-10.477-10.477-10.477zm-3.561-8.627c-4.725.89-8.56 3.218-11.572 6.915.821 1.028 1.095 2.123.821 3.356 0 .137.137.274.206.342l2.67 1.438c.41.205.822.48 1.233.685 2.465-3.63 5.82-5.615 10.202-5.615 4.383 0 7.67 2.054 10.134 5.615 1.164-.616 2.26-1.233 3.355-1.85.548-.273.89-.547.754-1.3-.206-1.027.205-1.917.89-2.739-3.013-3.698-6.848-6.026-11.572-6.916-.48 1.438-1.438 2.26-2.876 2.602v3.013H23.12V7.395c-1.301-.342-2.26-1.164-2.74-2.533zM8.81 36.154c3.08 3.698 6.847 6.026 11.572 6.916.479-1.37 1.438-2.26 2.875-2.602v-3.013h1.507v3.013c1.438.342 2.328 1.232 2.807 2.602 4.725-.959 8.56-3.218 11.572-6.916-.89-1.37-.958-1.78-.821-3.355a.523.523 0 00-.137-.343c-1.301-.753-2.67-1.438-4.04-2.19-2.465 3.628-5.82 5.614-10.203 5.614-4.382 0-7.737-2.054-10.202-5.615-1.37.753-2.67 1.438-3.972 2.191-.068.069-.205.206-.137.343.274 1.3-.068 2.396-.821 3.355zm4.245-7.19c-1.438-3.355-1.438-6.71 0-10.065-1.438-.754-2.807-1.575-4.245-2.328-.96 1.027-2.055 1.438-3.424 1.3-1.233 4.04-1.233 8.012 0 12.052 1.37-.137 2.465.342 3.424 1.301 1.438-.685 2.807-1.438 4.245-2.26zm26.02 2.328c.89-.89 1.917-1.438 3.218-1.369.069 0 .274-.205.343-.274.684-2.191.958-4.382.821-6.71-.068-1.712-.342-3.355-.959-4.999-1.3.137-2.396-.274-3.286-1.164-.069-.068-.274-.068-.411 0-.616.342-1.233.685-1.78.959-.685.41-1.438.753-2.123 1.164 1.438 3.355 1.438 6.71 0 10.065a81.771 81.771 0 004.177 2.328zM23.942 5.957c1.233 0 2.26-1.027 2.26-2.191 0-1.232-.959-2.26-2.191-2.26a2.28 2.28 0 00-2.26 2.26c-.068 1.164.959 2.191 2.191 2.191zM8.193 14.242a2.28 2.28 0 00-2.26-2.26 2.28 2.28 0 00-2.259 2.26c0 1.233 1.027 2.192 2.26 2.192 1.3 0 2.26-1.027 2.26-2.192zm35.949 0c0-1.232-1.027-2.26-2.191-2.26-1.233 0-2.26.96-2.26 2.192a2.28 2.28 0 002.26 2.26c1.164.068 2.19-.959 2.19-2.192zM8.193 33.69a2.28 2.28 0 00-2.26-2.26 2.28 2.28 0 00-2.259 2.26 2.28 2.28 0 002.26 2.26c1.3 0 2.26-1.027 2.26-2.26zm35.949 0c0-1.233-1.027-2.26-2.191-2.26-1.233 0-2.26.959-2.26 2.192a2.28 2.28 0 002.26 2.26c1.164.068 2.19-.96 2.19-2.192zm-20.2 8.285c-1.232 0-2.26 1.027-2.26 2.192a2.28 2.28 0 002.26 2.26 2.28 2.28 0 002.26-2.26c0-1.233-1.027-2.192-2.26-2.192z" fill="#fff"/><path d="M21.545 23.075c-1.438-1.301-1.643-2.876-1.233-4.588.411-1.78 2.192-2.944 3.903-2.807 1.986.205 3.287 1.712 3.424 3.697.069 1.37-.205 2.602-1.37 3.63.206.136.412.342.617.479 1.096.684 2.26 1.37 3.355 1.985.274.137.411.343.343.685v1.986c.068.89-.411 1.506-1.165 1.78-.753.274-1.574.48-2.328.548-2.465.205-4.998.274-7.463-.137-.411-.068-.822-.205-1.233-.342-.821-.343-1.3-.959-1.232-1.85v-2.053c0-.274.068-.411.274-.548 1.164-.685 2.26-1.37 3.423-2.054.274-.069.48-.206.685-.411zm1.986 6.162c1.37-.068 2.328-.068 3.287-.137a18.763 18.763 0 001.917-.342c.342-.068.41-.274.41-.616.206-1.096-.205-1.849-1.3-2.26-.137-.068-.274-.137-.343-.205-.821-.548-1.643-1.164-2.465-1.712-.068-.069-.274-.069-.41-.069h-1.575c-.137 0-.343 0-.411.069-.89.959-2.055 1.506-3.15 2.123-.685.41-1.027.821-.89 1.643.068.959.068.959.958 1.232h.137c1.507.069 2.876.206 3.835.274zm-1.849-9.449v.616c.069 1.164 1.027 1.986 2.123 2.055 1.095.068 2.122-.685 2.26-1.78.068-.617.068-1.233-.07-1.781-.341-1.37-1.985-2.054-3.217-1.37-.754.48-1.096 1.301-1.096 2.26zM24.696 4.45h-1.438V3.012h1.438V4.45zM6.686 14.927H5.248v-1.438h1.438v1.438zm35.949-1.438v1.438h-1.438v-1.438h1.438zM6.686 34.442H5.248v-1.438h1.438v1.438zm35.949-1.438v1.438h-1.438v-1.438h1.438zM24.696 43.48v1.439h-1.438V43.48h1.438z" fill="#fff"/></svg>