<svg width="48" height="48" fill="none" xmlns="http://www.w3.org/2000/svg"><g clip-path="url(#clip0_1457_20712)" fill="#fff"><path d="M34.875 14.55l-4.125 4.125c1.65 2.175 2.25 4.65 1.65 7.35-.525 2.1-1.725 3.825-3.525 5.025-3.525 2.475-8.25 1.95-11.175-1.2-3-3.225-3.15-7.95-.3-11.325 2.55-3.075 7.5-4.575 11.925-1.35a212 212 0 004.05-4.125c-2.4-2.025-5.175-3.225-8.475-3.45v2.625c0 .75-.375 1.2-.975 1.2s-.975-.45-.975-1.2v-6.45c-1.875.075-3.675.45-5.4 1.125-6 2.4-9.825 6.75-11.4 13.05 0 .15-.075.225-.075.375-.15.525-.6.825-1.125.75-.525-.15-.825-.6-.75-1.2.525-2.7 1.575-5.175 3.15-7.35 3.75-5.025 8.625-7.95 14.85-8.55.225 0 .525-.075.825-.075V1.35c0-.9.3-1.35.975-1.35.6 0 .975.45.975 1.275v6.45c3.75.3 7.05 1.65 9.825 4.05.45-.45.825-.9 1.35-1.425-.975-.675-1.875-1.425-2.925-2.025-1.65-.975-3.375-1.725-5.25-2.1-.15 0-.3-.075-.375-.075a.963.963 0 01-.675-1.2c.15-.525.6-.825 1.2-.675 2.4.45 4.575 1.35 6.6 2.7.975.675 1.875 1.35 3 2.175.075-.3.3-.525.3-.75V5.325c0-.375.15-.825.45-1.05C39.675 3 40.95 1.725 42.225.45c.375-.375.75-.525 1.2-.3.45.15.6.6.6 1.05v2.925h2.925c.525 0 .9.15 1.125.6.15.525 0 .9-.375 1.2-1.275 1.2-2.475 2.475-3.675 3.675-.3.3-.75.45-1.125.45-.975.075-2.025 0-3 0-.225 0-.525.225-.825.3 1.65 1.875 2.85 3.75 3.75 5.925.9 2.175 1.35 4.35 1.5 6.75h2.625c.75 0 1.2.375 1.2.975s-.45.975-1.2.975h-6.375c-.45 1.65-.675 3.3-1.275 4.8-1.95 5.025-5.55 8.325-10.725 9.9-.15 0-.225.075-.375.075-.6.15-1.05-.15-1.2-.675-.15-.525.15-.975.75-1.2.375-.15.75-.225 1.05-.375 5.7-2.175 8.925-6.375 9.6-12.375V24.9h-2.55c-.75 0-1.2-.375-1.2-.975s.45-.975 1.2-.975h6.45c-.3-4.275-1.8-8.025-4.575-11.175l-1.35 1.35c.075.075.15.225.3.375 1.425 1.725 2.475 3.675 3.075 5.85.3.9.075 1.425-.525 1.65-.6.15-1.05-.225-1.275-1.05-.75-1.95-1.725-3.75-3.075-5.4zM27.9 18.675c-2.25-1.875-6.15-2.025-8.775.675-2.55 2.7-2.55 6.675.075 9.3 2.625 2.625 6.675 2.7 9.3.15 2.7-2.55 2.7-6.45.75-8.85L28.2 21c-.3.225-.225.45-.075.75.525 1.05.75 2.1.45 3.225-.6 2.625-3.3 4.275-5.85 3.6-2.625-.675-4.2-3.45-3.45-6 .825-2.625 3.6-4.2 6.075-3.15 1.05.45 1.65.15 2.175-.6.225 0 .3-.075.375-.15zm-1.35 4.05c-.675.675-1.275 1.35-1.875 1.95-.375.375-.9.375-1.275 0-.375-.375-.45-.825-.15-1.275l.45-.45 1.575-1.575c-1.425-.6-2.85-.15-3.6.975a2.847 2.847 0 00.375 3.6c.975.975 2.4 1.125 3.6.375 1.05-.75 1.5-2.175.9-3.6zM39.9 8.1h2.325c.15 0 .375 0 .45-.075L44.7 6h-1.65C42.375 6 42 5.625 42 4.95V3.225l-1.95 1.95a.573.573 0 00-.15.375c-.075.9 0 1.65 0 2.55z"/><path d="M3.75 24.975H1.125c-.75 0-1.2-.375-1.2-.975s.45-.9 1.125-.975H7.5c.3-1.275.45-2.475.825-3.675.3-.975.75-1.95 1.125-2.85.3-.6.825-.825 1.35-.525.525.3.675.825.3 1.425-.9 1.8-1.5 3.675-1.575 5.7h2.4c.9 0 1.35.3 1.425.975 0 .675-.45.975-1.425.975H5.7c.075 1.575.3 3.075.825 4.5 2.25 6.525 6.675 10.65 13.35 12.3.225.075.525.15.75.3.375.3.525.675.3 1.125-.225.45-.6.675-1.125.6-2.325-.525-4.575-1.35-6.6-2.625C7.8 37.5 4.65 32.4 3.9 25.8c0-.225-.075-.45-.075-.675 0 0 0-.075-.075-.15z"/><path d="M24.975 44.175V46.8c0 .75-.375 1.2-.975 1.2s-.975-.45-.975-1.2v-6.45c-.975-.15-1.875-.3-2.775-.525C14.175 38.25 10.2 34.5 8.325 28.5c-.075-.225-.15-.375-.15-.6 0-.525.225-.825.675-.975.45-.15.9 0 1.125.45l.225.675c1.65 5.7 6.975 10.05 12.825 10.275v-2.55c0-.75.375-1.2.9-1.2.6 0 .975.45.975 1.2V42.3c1.2-.225 2.4-.375 3.525-.6 2.025-.45 3.825-1.275 5.55-2.4.15-.075.3-.225.45-.3.45-.15.825-.075 1.125.3.3.375.225.825-.075 1.125-.15.15-.375.3-.6.45-2.925 1.875-6.15 2.925-9.6 3.225 0 0-.15.075-.3.075zm15.375-8.85c-.974 0-1.35-.75-.974-1.575a71.769 71.769 0 001.95-4.2c.224-.6.374-1.275.524-1.875.15-.6.6-.9 1.125-.825.526.15.825.6.75 1.275-.45 2.4-1.35 4.575-2.7 6.6a2.23 2.23 0 01-.675.6zm-24.975-23.1c-.225-.225-.6-.45-.75-.825-.225-.45.075-.825.45-1.125 1.425-.9 3-1.65 4.65-2.025.525-.15.9 0 1.125.45.3.525.075 1.2-.525 1.425-1.575.45-3 1.05-4.35 1.95-.075 0-.225 0-.6.15zM13.65 13.65c0 .525-.45.9-.975.9-.525 0-.9-.45-.9-.975 0-.525.45-.9.975-.9.45 0 .9.45.9.975zm25.05 23.7c0 .525-.45.975-.975.975-.525 0-.975-.375-.975-.9s.375-.975.9-.975c.6 0 1.05.375 1.05.9z"/></g><defs><clipPath id="clip0_1457_20712"><path fill="#fff" d="M0 0h48v48H0z"/></clipPath></defs></svg>