<svg width="48" height="48" fill="none" xmlns="http://www.w3.org/2000/svg"><path d="M13.344 47.153c-.87-.386-1.257-.966-1.16-1.933v-1.547H4.74c-1.16 0-1.74-.58-1.74-1.74v-1.45c0-.483.29-.773.677-.773.386 0 .676.29.676.773v1.45c0 .193.097.29.29.29h7.541v-4.447c-1.837-1.16-2.417-1.934-2.707-4.06-1.16 0-2.32-.097-3.383 0-.967.096-1.644 1.16-1.74 2.223v1.354c0 .483-.29.773-.677.773-.387 0-.677-.29-.677-.773v-1.547c.097-1.16.677-2.127 1.643-2.804.097-.096.194-.096.29-.193-.386-1.257-.87-2.417-1.16-3.577-1.546-6.187-.58-11.89 2.997-17.208.194-.29.29-.483.097-.87a2.505 2.505 0 01.483-2.9c.774-.774 1.837-1.064 2.9-.58.194.193.387.096.58-.097 1.16-.773 2.224-1.547 3.384-2.32.483-.29.87-.193 1.063.193.194.387 0 .677-.386.967-1.064.773-2.127 1.45-3.19 2.224-.194.096-.194.29-.097.483.387.967.193 1.933-.483 2.61-.677.774-1.547 1.064-2.61.774-.29-.097-.387 0-.58.193-1.934 2.803-3.094 5.897-3.384 9.377-.387 3.48.193 6.767 1.547 9.958.096.29.29.386.676.386h3.964c.097-.386 0-.58-.194-.773-1.16-.967-1.933-2.127-2.126-3.577 0-.29-.097-.387-.387-.483-1.74-.484-2.32-2.61-1.063-3.964.096-.097.193-.387.193-.58V18.73c0-2.127 1.353-3.673 3.287-4.06.29-.097.677-.097.967-.097h4.35c.967 0 1.933.29 2.707.967.096.097.29.097.387.097.87-.387 1.74-.484 2.706-.484h1.354c.387 0 .677.29.773.677 0 .387-.29.677-.773.677h-2.03a3.286 3.286 0 00-3.287 3.093c-.097 1.45 0 2.9 0 4.35v.194c.386.097.386-.097.483-.387a7.628 7.628 0 011.16-2.9c.387-.483.58-.58 1.16-.387 1.837.58 3.577 1.064 5.51 1.257.484 0 1.064 0 1.547-.097.29-.096.677-.29.87-.483.387-.387.87-.387 1.16.097.484.773.87 1.643.967 2.513 0 .194.097.484.387.387v-3.19c0-.484-.097-.774-.677-.774-.386-.096-.58-.386-.58-.773 0-.773-.29-1.353-.773-1.934a2.742 2.742 0 00-2.127-.966h-.773a.66.66 0 01-.677-.677.66.66 0 01.677-.677c1.063-.096 2.127.097 2.997.58.966-.966 2.126-1.256 3.383-1.16h4.254c1.837 0 3.287 1.16 3.77 2.9 0 .097.097.29.29.387.58.387.87.967.87 1.644v3.287c0 .193.097.483.29.58 1.257 1.353.677 3.383-1.063 3.963-.29.097-.29.194-.387.387-.29 1.45-.967 2.707-2.127 3.673-.193.097-.193.387-.386.58l.096.097h4.061c.386 0 .483-.096.676-.386 1.354-3.19 1.837-6.478 1.547-9.861-.29-3.384-1.45-6.477-3.287-9.28-.193-.29-.387-.387-.677-.29-.966.29-1.837 0-2.513-.774-.677-.774-.87-1.644-.484-2.61-.096 0-.193-.194-.386-.387-2.804-2.224-5.994-3.674-9.57-4.254-.388-.096-.581 0-.774.387-.967 1.74-3.48 1.643-4.447 0-.194-.29-.387-.387-.677-.29l-3.48.87c-.194.097-.58.097-.774 0-.193-.097-.386-.387-.29-.58.097-.193.29-.58.484-.58 1.16-.387 2.223-.58 3.383-.87h.194c.58 0 .87-.194 1.063-.774.483-1.16 1.354-1.643 2.514-1.643 1.063.097 1.933.58 2.32 1.643.193.387.386.484.773.58 3.867.58 7.25 2.03 10.248 4.544.29.193.483.29.87.097.966-.387 2.126-.097 2.803.677.677.773.87 1.933.387 2.9-.097.193-.194.386 0 .676 4.35 6.478 4.93 13.341 2.03 20.592 0 .097-.097.193-.097.29.194.097.29.193.484.387.966.773 1.45 1.74 1.45 2.996v5.898c0 1.16-.58 1.74-1.74 1.74h-7.444v1.546c.096.967-.29 1.547-1.16 1.934-7.444-.097-14.695-.097-22.042-.097zm15.854-11.02c-.29 3.093-2.61 4.736-4.833 4.736-1.16 0-2.127-.29-2.997-1.063-1.257-.967-1.837-2.223-1.933-3.77H16.34c-1.74 0-2.804 1.063-2.804 2.803v6.38c0 .388.097.58.58.58h20.591c.194 0 .484.098.484-.29v-6.863c0-1.257-1.063-2.417-2.223-2.417-1.354-.193-2.514-.096-3.77-.096zm-.29-13.245c-3.093 1.064-5.8-.096-8.603-.773-.097.097-.194.193-.194.387-.483.676-.677 1.45-.677 2.223 0 1.643-.096 3.287.097 4.834.29 2.513 2.61 4.35 5.124 4.157 2.513-.194 4.543-2.224 4.543-4.737v-4.35c0-.58-.193-1.16-.29-1.74zm-18.85-1.45c-.098.58-.29 1.064-.388 1.547a34.128 34.128 0 000 4.447c.194 2.61 2.514 4.35 5.027 3.963 1.257-.193 2.32-.966 2.997-2.03-.096 0-.193-.096-.193-.096-1.643-.677-2.224-2.224-1.353-3.77 0-.097.096-.097.096-.194v-2.803c-2.127 0-4.06-.484-6.187-1.064zM44.182 42.32v-6.477c0-.967-.773-1.934-1.74-2.03-1.16-.097-2.224 0-3.384 0-.29 2.126-.87 2.996-2.707 4.06v4.447h7.831zM30.939 29.269c0 .096.096.193.096.193.967 1.45 2.9 2.224 4.544 1.837 1.837-.483 3.19-1.934 3.287-3.77a29.82 29.82 0 000-4.157c0-.484-.193-1.064-.193-1.547-2.224 1.063-4.254.387-6.38 0v2.9c0 .29.096.483.192.677.677 1.353.194 2.997-1.256 3.577-.097.193-.194.29-.29.29zm-.87-12.568l.87 2.03c.096.29.193.387.386.58.29.29.58.58.87.967l.387.387c.677.193 1.257.387 1.934.387.966.096 1.836.096 2.803 0 .29 0 .483-.387.677-.58.193-.194.386-.484.58-.484.193 0 .483.193.677.387.29.386.483.773.676 1.256v-2.03c0-.096-.193-.29-.29-.386-.483-.097-.676-.387-.676-.87-.097-1.257-1.064-2.224-2.32-2.224h-4.93c-.678-.097-1.258.194-1.644.58zM8.607 21.438c.193-.29.387-.58.483-.87.387-.58.58-.677 1.257-.483.967.29 1.934.483 2.9.773.967.194 2.03.387 3.094.194-.097-1.644.097-3.19 1.257-4.35-.484-.388-.967-.58-1.547-.58h-4.834c-1.45 0-2.513.966-2.61 2.416-.097.87 0 1.933 0 2.9zM26.298 34.78c-1.546.387-2.03.483-4.06 0 .29 1.16-.387 1.45-1.353 1.257.096 1.933 1.643 3.48 3.576 3.48 1.934-.097 3.48-1.643 3.384-3.383-.387-.097-.87-.097-1.063-.29-.387-.194-.387-.677-.484-1.064zm-13.63 1.74c.483-.483.966-.87 1.45-1.256.773-.484 1.546-.58 2.513-.58.193 0 .387-.097.387-.194.096-.193.096-.483.193-.87-.87.097-1.45-.097-1.353-1.16a6.456 6.456 0 01-3.577.097c-.097.386-.194.773-.387.966-.193.194-.677.194-.967.29-.096 1.064.677 2.224 1.74 2.707zm20.108-3.963c-.194.966-.194.966-1.257 1.16-.097.87 0 .966.87.966 1.063 0 2.03.29 2.803 1.064.29.193.484.483.774.773 1.16-.483 2.03-1.837 1.837-2.803-1.064-.097-1.16 0-1.257-1.16-1.354.386-2.514.29-3.77 0zM9.187 11.287a1.28 1.28 0 001.257-1.256c0-.677-.58-1.257-1.16-1.257-.677 0-1.257.483-1.257 1.16a1.174 1.174 0 001.16 1.353zM24.268 4.52a1.28 1.28 0 001.257-1.256c0-.677-.58-1.16-1.257-1.257a1.28 1.28 0 00-1.257 1.257c.097.773.58 1.256 1.257 1.256zm15.178 6.767a1.28 1.28 0 001.257-1.256c0-.677-.484-1.16-1.16-1.257-.677 0-1.257.483-1.257 1.16a1.174 1.174 0 001.16 1.353zM20.788 34.682c.097-.58-.097-.966-.483-.966-.58-.097-1.16 0-1.837 0 0 .386-.097.676-.097.966h2.417zm9.28-.966h-1.45c-.676 0-.966.29-.773.966h2.417c-.097-.386-.097-.676-.193-.966zm1.354-1.45c0-.87-.87-.967-1.16-1.547l-.773 1.547h1.933zm-12.374 0c-.29-.484-.483-.967-.774-1.45-.29.29-.483.483-.773.676-.29.194-.58.387-.387.774h1.934zm-1.064-4.35v-2.224c-.58.096-.87.483-.87.966 0 .58.29 1.064.87 1.257zm12.568-2.224v2.223c.58-.096.87-.58.87-1.063.097-.58-.29-.967-.87-1.16zM8.317 24.338c-.483.194-.677.58-.677.967s.194.677.677.87v-1.837zm31.999 1.837c.483-.193.677-.483.677-.967 0-.386-.194-.676-.677-.87v1.837z" fill="#fff"/></svg>