<svg width="456" height="469" viewBox="0 0 456 469" fill="none" xmlns="http://www.w3.org/2000/svg">
<g clip-path="url(#clip0_1457_20394)">
<path opacity="0.5" d="M410.147 99.3143C403.221 89.813 343.927 11.2327 247.815 15.0611C243.012 15.2511 149.276 20.2131 114.703 81.8107C89.1278 127.376 116.205 167.802 85.0046 198.846C57.8114 225.897 24.4079 207.992 7.70208 229.866C-17.7465 263.186 22.773 353.176 85.0472 403.364C149.341 455.184 272.345 493.202 367.955 424.064C475.282 346.44 474.199 187.176 410.147 99.3143Z" fill="url(#paint0_linear_1457_20394)" fill-opacity="0.5"/>
<g style="mix-blend-mode:soft-light">
<g style="mix-blend-mode:soft-light">
<path d="M110.941 298.066C102.012 298.058 93.0924 297.47 84.2393 296.306L84.3425 295.519C141.73 303.008 178.597 284.215 182.631 282.037C162.461 250.605 176.718 204.359 176.865 203.897L177.622 204.136C177.476 204.598 163.224 250.845 183.529 281.963L183.757 282.313L183.395 282.523C183.069 282.705 155.985 298.066 110.941 298.066Z" fill="white"/>
</g>
</g>
<path d="M146.387 257.902C145.829 257.901 145.292 257.692 144.879 257.317C144.467 256.941 144.209 256.426 144.156 255.87C142.19 235.243 135.464 215.642 125.217 200.683C116.14 187.429 105.335 179.52 96.3058 179.52H96.2779C63.3921 179.584 56.5119 255.086 56.4464 255.857C56.3808 256.439 56.0908 256.972 55.6381 257.343C55.1855 257.713 54.606 257.893 54.0229 257.843C53.4399 257.793 52.8994 257.518 52.5164 257.075C52.1335 256.633 51.9384 256.058 51.9726 255.474C52.2544 252.198 59.2951 175.11 96.2681 175.041H96.3074C106.977 175.041 118.861 183.463 128.925 198.157C139.592 213.734 146.59 234.083 148.627 255.454C148.656 255.748 148.627 256.046 148.541 256.328C148.455 256.611 148.314 256.874 148.126 257.103C147.938 257.331 147.707 257.52 147.446 257.659C147.185 257.797 146.899 257.883 146.605 257.912C146.532 257.905 146.459 257.902 146.387 257.902Z" fill="url(#paint1_linear_1457_20394)"/>
<path d="M9.38384 413.293L52.6752 435.21L78.9134 354.72L35.6859 246.805L23.431 249.809L4.83471 404.778C4.62658 406.493 4.95157 408.23 5.7655 409.753C6.57943 411.277 7.8428 412.513 9.38384 413.293Z" fill="url(#paint2_linear_1457_20394)"/>
<path style="mix-blend-mode:multiply" opacity="0.52" d="M78.914 354.72L35.6865 246.805L28.459 248.584C27.634 260.202 27.674 271.865 28.5786 283.477C31.4748 320.215 41.0973 330.439 36.4417 356.069C32.5658 377.38 24.1015 380.273 24.8403 394.612C25.6463 410.227 36.5384 423.304 49.4879 433.586L52.6823 435.203L78.914 354.72Z" fill="url(#paint3_linear_1457_20394)"/>
<path d="M35.6865 246.811H197.1L250.52 419.269L52.6758 435.21L35.6865 246.811Z" fill="url(#paint4_linear_1457_20394)"/>
<path d="M85.6893 261.592C85.1824 261.593 84.6902 261.422 84.2928 261.108C83.8954 260.793 83.6162 260.353 83.5008 259.859C83.0421 257.903 72.4367 211.698 87.3897 189.014C91.6751 182.516 97.6642 178.547 105.187 177.22C143.847 170.408 167.641 253.431 168.635 256.97C168.724 257.256 168.754 257.557 168.724 257.856C168.695 258.154 168.606 258.444 168.462 258.707C168.319 258.97 168.124 259.202 167.89 259.389C167.655 259.576 167.386 259.714 167.097 259.795C166.808 259.877 166.506 259.899 166.209 259.861C165.911 259.824 165.624 259.727 165.364 259.577C165.105 259.427 164.878 259.226 164.697 258.987C164.517 258.747 164.386 258.474 164.312 258.183C164.08 257.364 140.652 175.518 105.966 181.641C99.6185 182.762 94.7679 185.982 91.1394 191.486C77.2381 212.568 87.7649 258.374 87.873 258.834C88.0086 259.414 87.9085 260.024 87.5945 260.53C87.2806 261.036 86.7786 261.397 86.1988 261.533C86.0317 261.572 85.8608 261.592 85.6893 261.592Z" fill="url(#paint5_linear_1457_20394)"/>
<g style="mix-blend-mode:multiply" opacity="0.3">
<path style="mix-blend-mode:multiply" opacity="0.3" d="M197.1 246.805H117.024C113.074 250.822 110.271 255.451 110.003 260.646C108.745 285.054 164.838 293.061 170.249 326.499C174.151 350.624 150.139 378.46 128.714 390.86C106.14 403.926 90.8445 397.31 75.577 411.816C68.8704 418.19 64.7848 426.159 62.3555 434.422L250.52 419.261L197.1 246.805Z" fill="url(#paint6_linear_1457_20394)"/>
</g>
<path d="M91.9031 262.952C92.4583 259.531 90.1356 256.308 86.7153 255.753C83.295 255.198 80.0722 257.521 79.517 260.941C78.9618 264.361 81.2844 267.584 84.7048 268.139C88.1251 268.695 91.3479 266.372 91.9031 262.952Z" fill="url(#paint7_linear_1457_20394)"/>
<path d="M174.649 261.578C175.204 258.148 172.872 254.918 169.442 254.363C166.011 253.809 162.781 256.14 162.227 259.571C161.672 263.001 164.004 266.231 167.434 266.786C170.864 267.34 174.095 265.009 174.649 261.578Z" fill="url(#paint8_linear_1457_20394)"/>
<path d="M315.61 67.9192C329.631 186.412 343.651 303.674 357.671 419.705C358.301 424.908 354.707 429.507 349.678 429.937C293.326 435.283 236.977 440.743 180.631 446.318C170.579 446.81 165.059 441.189 164.413 435.567C149.982 310.314 135.551 183.751 121.119 55.8772C120.464 50.1338 125.337 45.1981 135.389 45.6895C192.016 49.7303 248.642 53.7165 305.265 57.648C310.33 57.9822 314.98 62.6001 315.61 67.9192Z" fill="#26264F"/>
<path d="M323.435 67.6735C337.545 186.69 351.654 304.455 365.762 420.966C366.396 426.185 362.781 430.813 357.719 431.244C299.207 436.2 240.696 441.254 182.185 446.405C176.846 446.88 171.938 442.65 171.288 437C156.763 311.174 142.238 184.022 127.713 55.543C127.058 49.7751 130.932 45.3488 136.308 45.7141C195.213 49.6457 254.117 53.5281 313.022 57.3614C318.123 57.6988 322.803 62.3331 323.435 67.6735Z" fill="url(#paint9_linear_1457_20394)"/>
<path d="M320.037 87.1429C333.104 197.412 346.172 306.605 359.241 414.723C359.832 419.61 356.456 423.925 351.725 424.31C296.698 428.809 241.671 433.396 186.644 438.07C181.672 438.496 177.102 434.537 176.488 429.288C163.055 313.069 149.627 195.717 136.206 77.2304C135.598 71.8688 139.2 67.721 144.203 68.0175C199.572 71.2414 254.942 74.4314 310.311 77.5876C315.075 77.8562 319.447 82.1711 320.037 87.1429Z" fill="url(#paint10_linear_1457_20394)"/>
<path d="M320.037 87.1429C333.104 197.412 346.172 306.605 359.241 414.723C359.832 419.61 356.456 423.925 351.725 424.31C296.698 428.809 241.671 433.396 186.644 438.07C181.672 438.496 177.102 434.537 176.488 429.288C163.055 313.069 149.627 195.717 136.206 77.2304C135.598 71.8688 139.2 67.721 144.203 68.0175C199.572 71.2414 254.942 74.4314 310.311 77.5876C315.075 77.8562 319.447 82.1711 320.037 87.1429Z" fill="url(#paint11_linear_1457_20394)"/>
<g style="mix-blend-mode:multiply" opacity="0.35">
<path d="M310.317 77.5843C255.603 74.4652 200.889 71.3129 146.175 68.1273C148.016 78.8662 151.247 89.3197 155.787 99.2242C173.937 138.599 200.599 140.766 211.029 175.07C221.775 210.42 197.541 221.482 209.379 253.398C222.227 288.031 253.739 283.018 270.392 321.006C284.747 353.75 266.267 368.717 281.111 388.616C297.381 410.425 327.478 403.032 358.72 410.418C345.826 303.707 332.932 195.949 320.036 87.1445C319.447 82.1711 315.074 77.8562 310.317 77.5843Z" fill="url(#paint12_linear_1457_20394)"/>
</g>
<path d="M230.402 63.049C230.625 64.9673 229.335 66.435 227.524 66.3253C225.712 66.2155 224.057 64.5676 223.835 62.6411C223.612 60.7146 224.903 59.2436 226.716 59.3648C228.529 59.486 230.179 61.1291 230.402 63.049Z" fill="#DE8BDF"/>
<path d="M250.167 169.609C257.162 169.609 262.832 162.92 262.832 154.669C262.832 146.418 257.162 139.729 250.167 139.729C243.173 139.729 237.503 146.418 237.503 154.669C237.503 162.92 243.173 169.609 250.167 169.609Z" fill="#DD51D4"/>
<path d="M250.167 169.609C257.162 169.609 262.832 162.92 262.832 154.669C262.832 146.418 257.162 139.729 250.167 139.729C243.173 139.729 237.503 146.418 237.503 154.669C237.503 162.92 243.173 169.609 250.167 169.609Z" fill="black" fill-opacity="0.2"/>
<path d="M300.578 169.609C307.571 169.609 313.241 162.92 313.241 154.669C313.241 146.418 307.571 139.729 300.578 139.729C293.584 139.729 287.915 146.418 287.915 154.669C287.915 162.92 293.584 169.609 300.578 169.609Z" fill="#DD51D4"/>
<path d="M300.578 169.609C307.571 169.609 313.241 162.92 313.241 154.669C313.241 146.418 307.571 139.729 300.578 139.729C293.584 139.729 287.915 146.418 287.915 154.669C287.915 162.92 293.584 169.609 300.578 169.609Z" fill="black" fill-opacity="0.2"/>
<path d="M275.232 169.609C282.326 169.609 288.077 162.92 288.077 154.669C288.077 146.418 282.326 139.729 275.232 139.729C268.138 139.729 262.388 146.418 262.388 154.669C262.388 162.92 268.138 169.609 275.232 169.609Z" fill="#D8DEE8"/>
<path d="M350.988 169.609C357.982 169.609 363.652 162.92 363.652 154.669C363.652 146.418 357.982 139.729 350.988 139.729C343.993 139.729 338.323 146.418 338.323 154.669C338.323 162.92 343.993 169.609 350.988 169.609Z" fill="#DD51D4"/>
<path d="M350.988 169.609C357.982 169.609 363.652 162.92 363.652 154.669C363.652 146.418 357.982 139.729 350.988 139.729C343.993 139.729 338.323 146.418 338.323 154.669C338.323 162.92 343.993 169.609 350.988 169.609Z" fill="black" fill-opacity="0.2"/>
<path d="M325.644 169.609C332.737 169.609 338.488 162.92 338.488 154.669C338.488 146.418 332.737 139.729 325.644 139.729C318.55 139.729 312.799 146.418 312.799 154.669C312.799 162.92 318.55 169.609 325.644 169.609Z" fill="#D8DEE8"/>
<path d="M376.053 169.609C383.147 169.609 388.897 162.92 388.897 154.669C388.897 146.418 383.147 139.729 376.053 139.729C368.959 139.729 363.208 146.418 363.208 154.669C363.208 162.92 368.959 169.609 376.053 169.609Z" fill="#D8DEE8"/>
<path d="M224.823 169.609C231.917 169.609 237.668 162.92 237.668 154.669C237.668 146.418 231.917 139.729 224.823 139.729C217.729 139.729 211.979 146.418 211.979 154.669C211.979 162.92 217.729 169.609 224.823 169.609Z" fill="#D8DEE8"/>
<path d="M133.67 66.535L212.253 156.692H415.079L316.797 77.9529L133.67 66.535Z" fill="url(#paint13_linear_1457_20394)"/>
<path d="M133.67 66.535L212.253 156.692H415.079L316.797 77.9529L133.67 66.535Z" fill="#DD51D4"/>
<path d="M133.67 66.535L212.253 156.692H237.668L154.809 67.852L133.67 66.535Z" fill="#F4F7FA"/>
<path d="M177.506 69.2674L262.712 156.692H287.815L200.371 70.6942L177.506 69.2674Z" fill="#F4F7FA"/>
<path d="M223.407 72.1292L312.979 156.692H338.205L246.615 73.5774L223.407 72.1292Z" fill="#F4F7FA"/>
<path d="M293.567 76.5048L270.001 75.0353L363.49 156.692H388.839L293.567 76.5048Z" fill="#F4F7FA"/>
<path d="M388.863 156.692C389.702 163.985 394.987 169.611 401.397 169.611C407.807 169.611 413.093 163.985 413.932 156.692H388.863Z" fill="#DD51D4"/>
<path d="M388.863 156.692C389.702 163.985 394.987 169.611 401.397 169.611C407.807 169.611 413.093 163.985 413.932 156.692H388.863Z" fill="black" fill-opacity="0.2"/>
<path opacity="0.63" d="M292.463 213.013C281.487 187.733 253.665 175.455 230.307 185.591C206.948 195.726 196.905 224.436 207.874 249.718C218.843 274.999 246.672 287.274 270.03 277.138C293.389 267.003 303.432 238.287 292.463 213.013ZM258.019 249.039L258.955 256.159L252.112 257.058L251.247 250.425C246.542 250.831 241.839 250.171 238.984 248.984L240.005 240.541C243.148 241.759 247.46 242.687 251.999 242.089C255.978 241.566 258.499 239.672 258.131 236.879C257.783 234.226 255.328 232.845 249.94 231.778C242.139 230.247 236.584 227.426 235.688 220.654C234.882 214.51 238.578 209.124 245.854 206.677L244.983 200.044L251.825 199.146L252.631 205.289C257.338 204.883 260.608 205.453 263.058 206.262L262.075 214.417C260.159 213.888 256.737 212.704 251.709 213.365C247.171 213.96 245.963 216.109 246.22 218.064C246.523 220.367 249.159 221.504 255.393 222.967C264.087 224.808 267.942 228.209 268.767 234.488C269.565 240.703 265.864 246.585 258.019 249.039Z" fill="#F4F7FA"/>
<g opacity="0.63">
<path opacity="0.63" d="M317.525 350.282L210.608 353.52C208.751 353.577 206.937 352.951 205.509 351.762C204.082 350.572 203.14 348.9 202.861 347.063L198.527 318.559C198.364 317.491 198.432 316.401 198.724 315.361C199.016 314.32 199.526 313.355 200.221 312.527C200.916 311.7 201.779 311.03 202.753 310.562C203.726 310.094 204.789 309.84 205.869 309.815L312.901 307.336C314.75 307.292 316.552 307.923 317.97 309.112C319.387 310.301 320.322 311.966 320.6 313.795L324.818 341.539C324.98 342.603 324.914 343.689 324.624 344.726C324.335 345.762 323.829 346.726 323.139 347.552C322.45 348.378 321.593 349.049 320.625 349.52C319.657 349.99 318.601 350.25 317.525 350.282Z" fill="#F4F7FA"/>
<path opacity="0.63" d="M321.117 373.714L214.262 377.365C212.4 377.429 210.579 376.806 209.146 375.616C207.713 374.426 206.766 372.751 206.486 370.91L206.445 370.641C206.283 369.578 206.349 368.493 206.637 367.458C206.926 366.423 207.43 365.46 208.118 364.634C208.806 363.808 209.66 363.137 210.626 362.665C211.592 362.194 212.647 361.932 213.721 361.898L320.615 358.512C322.474 358.453 324.291 359.077 325.72 360.267C327.15 361.457 328.094 363.129 328.374 364.968C328.535 366.029 328.471 367.113 328.184 368.147C327.897 369.182 327.394 370.144 326.708 370.97C326.023 371.796 325.17 372.468 324.206 372.941C323.243 373.414 322.19 373.677 321.117 373.714Z" fill="#F4F7FA"/>
</g>
</g>
<defs>
<linearGradient id="paint0_linear_1457_20394" x1="454.252" y1="57.5462" x2="-99.7043" y2="113.751" gradientUnits="userSpaceOnUse">
<stop stop-color="#7C4EAB"/>
<stop offset="1" stop-color="#DD51D4"/>
</linearGradient>
<linearGradient id="paint1_linear_1457_20394" x1="102972" y1="135393" x2="105430" y2="172655" gradientUnits="userSpaceOnUse">
<stop stop-color="#E38DDD"/>
<stop offset="1" stop-color="#9571F6"/>
</linearGradient>
<linearGradient id="paint2_linear_1457_20394" x1="-13.5879" y1="270.748" x2="41.1344" y2="362.515" gradientUnits="userSpaceOnUse">
<stop stop-color="#FF9085"/>
<stop offset="1" stop-color="#FB6FBB"/>
</linearGradient>
<linearGradient id="paint3_linear_1457_20394" x1="24160.8" y1="380126" x2="80098.9" y2="407072" gradientUnits="userSpaceOnUse">
<stop stop-color="#FF9085"/>
<stop offset="1" stop-color="#FB6FBB"/>
</linearGradient>
<linearGradient id="paint4_linear_1457_20394" x1="120263" y1="354142" x2="301982" y2="513801" gradientUnits="userSpaceOnUse">
<stop stop-color="#FF9085"/>
<stop offset="1" stop-color="#FB6FBB"/>
</linearGradient>
<linearGradient id="paint5_linear_1457_20394" x1="103738" y1="121257" x2="111476" y2="173227" gradientUnits="userSpaceOnUse">
<stop stop-color="#E38DDD"/>
<stop offset="1" stop-color="#9571F6"/>
</linearGradient>
<linearGradient id="paint6_linear_1457_20394" x1="185970" y1="423708" x2="362553" y2="560160" gradientUnits="userSpaceOnUse">
<stop stop-color="#FF9085"/>
<stop offset="1" stop-color="#FB6FBB"/>
</linearGradient>
<linearGradient id="paint7_linear_1457_20394" x1="11984.9" y1="25027.6" x2="12178.7" y2="25099.6" gradientUnits="userSpaceOnUse">
<stop stop-color="#E38DDD"/>
<stop offset="1" stop-color="#9571F6"/>
</linearGradient>
<linearGradient id="paint8_linear_1457_20394" x1="18404.5" y1="25039.5" x2="18598.9" y2="25111.6" gradientUnits="userSpaceOnUse">
<stop stop-color="#E38DDD"/>
<stop offset="1" stop-color="#9571F6"/>
</linearGradient>
<linearGradient id="paint9_linear_1457_20394" x1="156.345" y1="245.316" x2="505.686" y2="190.039" gradientUnits="userSpaceOnUse">
<stop stop-color="#444B8C"/>
<stop offset="1" stop-color="#26264F"/>
</linearGradient>
<linearGradient id="paint10_linear_1457_20394" x1="313.394" y1="109.702" x2="-30.638" y2="823.289" gradientUnits="userSpaceOnUse">
<stop stop-color="#FFC444"/>
<stop offset="1" stop-color="#F36F56"/>
</linearGradient>
<linearGradient id="paint11_linear_1457_20394" x1="359.308" y1="103.317" x2="85.3531" y2="119.797" gradientUnits="userSpaceOnUse">
<stop stop-color="#7C4EAB"/>
<stop offset="1" stop-color="#DD51D4"/>
</linearGradient>
<linearGradient id="paint12_linear_1457_20394" x1="358.719" y1="100.788" x2="97.8639" y2="116.948" gradientUnits="userSpaceOnUse">
<stop stop-color="#7C4EAB"/>
<stop offset="1" stop-color="#DD51D4"/>
</linearGradient>
<linearGradient id="paint13_linear_1457_20394" x1="246938" y1="61494.2" x2="730357" y2="61494.2" gradientUnits="userSpaceOnUse">
<stop stop-color="#FF9085"/>
<stop offset="1" stop-color="#FB6FBB"/>
</linearGradient>
<clipPath id="clip0_1457_20394">
<rect width="456" height="469" fill="white"/>
</clipPath>
</defs>
</svg>
